<svg id="Capa_1" enable-background="new 0 0 512 512" height="512" viewBox="0 0 512 512" width="512" xmlns="http://www.w3.org/2000/svg"><g><path d="m434.526 274.137h-14.635c5.081-13.059 7.899-27.249 7.899-42.105 0-59.446-44.638-108.46-102.222-115.37v73.934c0 2.255 1.835 4.09 4.091 4.09h12.029c.828 0 1.534.446 1.889 1.194s.254 1.577-.27 2.219l-33.663 41.224c-.398.488-.989.768-1.619.768-.631 0-1.221-.28-1.62-.769l-33.663-41.223c-.523-.642-.624-1.471-.269-2.219.354-.748 1.061-1.194 1.889-1.194h12.029c2.255 0 4.09-1.835 4.09-4.09v-72.851c-27.658 5.075-51.881 19.943-68.961 40.878v81.173c0 1.153-.938 2.09-2.091 2.09h-30.905c-1.153 0-2.091-.938-2.091-2.09v-60.642c-6.835-1.757-13.996-2.701-21.38-2.701-47.438 0-85.895 38.456-85.895 85.895 0 4.002.296 7.933.826 11.789h-2.51c-42.611 0-77.474 34.863-77.474 77.473 0 42.611 34.863 77.474 77.474 77.474h35.964v-27.344c0-2.289 1.862-4.151 4.15-4.151h276.824c2.288 0 4.15 1.862 4.15 4.151v27.344h35.964c42.611 0 77.474-34.863 77.474-77.474 0-42.61-34.863-77.473-77.474-77.473z" fill="#c8effe"/><g><g fill="#99e6fc"><path d="m185.433 178.901c-6.532-1.595-13.355-2.448-20.38-2.448-47.438 0-85.895 38.456-85.895 85.895 0 4.002.296 7.933.826 11.789h-1.391c-42.213 0-77.509 33.312-78.568 75.511-.812 32.363 18.517 60.522 46.278 72.829-6.084-11.227-9.479-24.1-9.295-37.742.561-41.523 34.254-74.782 75.43-76.344v-15.089c0-2.494 1.772-4.572 4.125-5.047 3.633-38.008 32.029-68.784 68.87-76.01z"/><path d="m289.481 117.924c-26.706 5.143-50.151 19.433-66.962 39.479v55.701c3.741.918 7.389 2.074 10.92 3.464 4.685 1.844 10.018-.184 12.373-4.634 10.053-18.997 25.226-34.86 43.669-45.781z"/><path d="m326.567 116.784v35.316c7.129-1.368 14.483-2.1 22.011-2.1 21.318 0 41.292 5.746 58.468 15.765-18.293-26.306-47.177-44.691-80.479-48.981z"/></g></g><g><g><g><path d="m112.437 360.532v-67.229c0-2.845 2.306-5.151 5.151-5.151h276.824c2.845 0 5.151 2.306 5.151 5.151v67.229c0 2.845-2.306 5.151-5.151 5.151h-276.824c-2.845-.001-5.151-2.307-5.151-5.151z" fill="#8d9ca8"/></g><g><path d="m175.941 360.532v-67.229c0-2.845 2.306-5.151 5.151-5.151h-63.504c-2.845 0-5.151 2.306-5.151 5.151v67.229c0 2.845 2.306 5.151 5.151 5.151h63.504c-2.845 0-5.151-2.307-5.151-5.151z" fill="#7a8c98"/></g><g><g><path d="m367.199 334.417h-34.854c-4.143 0-7.5-3.358-7.5-7.5s3.357-7.5 7.5-7.5h34.854c4.143 0 7.5 3.358 7.5 7.5s-3.357 7.5-7.5 7.5z" fill="#fac600"/></g><g><path d="m144.801 341.886c-4.143 0-7.5-3.358-7.5-7.5v-14.938c0-4.142 3.357-7.5 7.5-7.5s7.5 3.358 7.5 7.5v14.938c0 4.142-3.358 7.5-7.5 7.5z" fill="#465a61"/></g><g><path d="m174.676 341.886c-4.143 0-7.5-3.358-7.5-7.5v-14.938c0-4.142 3.357-7.5 7.5-7.5s7.5 3.358 7.5 7.5v14.938c0 4.142-3.358 7.5-7.5 7.5z" fill="#465a61"/></g><g><path d="m204.55 341.886c-4.143 0-7.5-3.358-7.5-7.5v-14.938c0-4.142 3.357-7.5 7.5-7.5s7.5 3.358 7.5 7.5v14.938c0 4.142-3.358 7.5-7.5 7.5z" fill="#465a61"/></g><g><path d="m234.424 341.886c-4.143 0-7.5-3.358-7.5-7.5v-14.938c0-4.142 3.357-7.5 7.5-7.5s7.5 3.358 7.5 7.5v14.938c0 4.142-3.358 7.5-7.5 7.5z" fill="#465a61"/></g><g><circle cx="308.854" cy="326.917" fill="#fac600" r="7.5"/></g><g><circle cx="288.25" cy="326.917" fill="#fff" r="7.5"/></g><g><circle cx="267.647" cy="326.917" fill="#fff" r="7.5"/></g></g></g><g><g><path d="m112.437 468.969v-67.229c0-2.845 2.306-5.151 5.151-5.151h276.824c2.845 0 5.151 2.306 5.151 5.151v67.229c0 2.845-2.306 5.151-5.151 5.151h-276.824c-2.845 0-5.151-2.306-5.151-5.151z" fill="#8d9ca8"/></g><g><path d="m175.941 468.969v-67.229c0-2.845 2.306-5.151 5.151-5.151h-63.504c-2.845 0-5.151 2.306-5.151 5.151v67.229c0 2.845 2.306 5.151 5.151 5.151h63.504c-2.845 0-5.151-2.306-5.151-5.151z" fill="#7a8c98"/></g><g><g><path d="m367.199 442.854h-34.854c-4.143 0-7.5-3.358-7.5-7.5s3.357-7.5 7.5-7.5h34.854c4.143 0 7.5 3.358 7.5 7.5s-3.357 7.5-7.5 7.5z" fill="#fac600"/></g><g><path d="m144.801 450.323c-4.143 0-7.5-3.358-7.5-7.5v-14.937c0-4.142 3.357-7.5 7.5-7.5s7.5 3.358 7.5 7.5v14.937c0 4.142-3.358 7.5-7.5 7.5z" fill="#465a61"/></g><g><path d="m174.676 450.323c-4.143 0-7.5-3.358-7.5-7.5v-14.937c0-4.142 3.357-7.5 7.5-7.5s7.5 3.358 7.5 7.5v14.937c0 4.142-3.358 7.5-7.5 7.5z" fill="#465a61"/></g><g><path d="m204.55 450.323c-4.143 0-7.5-3.358-7.5-7.5v-14.937c0-4.142 3.357-7.5 7.5-7.5s7.5 3.358 7.5 7.5v14.937c0 4.142-3.358 7.5-7.5 7.5z" fill="#465a61"/></g><g><path d="m234.424 450.323c-4.143 0-7.5-3.358-7.5-7.5v-14.937c0-4.142 3.357-7.5 7.5-7.5s7.5 3.358 7.5 7.5v14.937c0 4.142-3.358 7.5-7.5 7.5z" fill="#465a61"/></g><g><circle cx="308.854" cy="435.354" fill="#fac600" r="7.5"/></g><g><circle cx="288.25" cy="435.354" fill="#fac600" r="7.5"/></g><g><circle cx="267.647" cy="435.354" fill="#fff" r="7.5"/></g></g></g></g><g><g><path d="m240.033 82.035-33.663-41.223c-1.237-1.514-3.551-1.514-4.788 0l-33.663 41.223c-1.648 2.018-.212 5.045 2.394 5.045h12.029c1.707 0 3.091 1.384 3.091 3.091v149.625c0 1.707 1.384 3.091 3.091 3.091h30.905c1.707 0 3.091-1.384 3.091-3.091v-149.625c0-1.707 1.384-3.091 3.091-3.091h12.029c2.605 0 4.041-3.027 2.393-5.045z" fill="#01d0fb"/></g><g><g><path d="m190.772 71.614h-14.343l-8.51 10.421c-1.648 2.018-.212 5.045 2.394 5.045h12.03c1.707 0 3.091 1.384 3.091 3.091v149.625c0 1.707 1.384 3.091 3.091 3.091h12.55v-160.972c-.002-5.689-4.614-10.301-10.303-10.301z" fill="#01c0fa"/></g></g><g><path d="m271.967 198.732 33.663 41.223c1.237 1.514 3.551 1.514 4.788 0l33.663-41.223c1.648-2.018.212-5.045-2.394-5.045h-12.029c-1.707 0-3.091-1.384-3.091-3.091v-149.625c0-1.707-1.384-3.091-3.091-3.091h-30.905c-1.707 0-3.091 1.384-3.091 3.091v149.625c0 1.707-1.384 3.091-3.091 3.091h-12.029c-2.605-.001-4.041 3.026-2.393 5.045z" fill="#00c27a"/></g><g><g><path d="m280.863 209.626h13.956c5.69 0 10.302-4.612 10.302-10.302v-161.444h-12.55c-1.707 0-3.091 1.384-3.091 3.091v149.625c0 1.707-1.384 3.091-3.091 3.091h-12.029c-2.606 0-4.042 3.027-2.394 5.045z" fill="#09a755"/></g></g></g></g></svg>