<svg height="512pt" viewBox="-75 0 512 512" width="512pt" xmlns="http://www.w3.org/2000/svg"><path d="m286.71875 343.679688-86.398438 94.292968c-12.160156 13.226563-29.226562 20.695313-47.148437 20.695313h-35.839844c-47.144531 0-85.332031-38.1875-85.332031-85.335938v-85.332031c0-11.734375 9.601562-21.332031 21.332031-21.332031 3.839844 0 7.46875 1.066406 10.667969 2.984375 6.398438 3.628906 10.667969 10.453125 10.667969 18.347656v-21.332031c0-11.734375 9.597656-21.335938 21.332031-21.335938 3.839844 0 7.464844 1.066407 10.667969 2.988281 6.398437 3.625 10.664062 10.453126 10.664062 18.347657v-21.335938c0-11.730469 9.601563-21.332031 21.335938-21.332031 3.839843 0 7.464843 1.066406 10.664062 2.988281 6.402344 3.625 10.667969 10.453125 10.667969 18.34375v-64c0-11.730469 9.601562-21.332031 21.332031-21.332031 11.734375 0 21.335938 9.601562 21.335938 21.332031v149.335938l34.34375-22.828125c16.640625-11.09375 39.042969-7.253906 50.988281 8.746094 6.1875 8.105468 5.546875 19.628906-1.28125 27.09375zm0 0" fill="#ffcc80"/><path d="m202.667969 448h-149.335938c-5.886719 0-10.664062 4.777344-10.664062 10.667969v42.664062c0 5.890625 4.777343 10.667969 10.664062 10.667969h149.335938c5.886719 0 10.664062-4.777344 10.664062-10.667969v-42.664062c0-5.890625-4.777343-10.667969-10.664062-10.667969zm0 0" fill="#455a64"/><path d="m181.332031 64c-5.886719 0-10.664062-4.777344-10.664062-10.667969v-42.664062c0-5.890625 4.777343-10.667969 10.664062-10.667969 5.890625 0 10.667969 4.777344 10.667969 10.667969v42.664062c0 5.890625-4.777344 10.667969-10.667969 10.667969zm0 0"/><path d="m352 192h-42.667969c-5.886719 0-10.664062-4.777344-10.664062-10.667969 0-5.886719 4.777343-10.664062 10.664062-10.664062h42.667969c5.886719 0 10.667969 4.777343 10.667969 10.664062 0 5.890625-4.78125 10.667969-10.667969 10.667969zm0 0"/><path d="m53.332031 192h-42.664062c-5.890625 0-10.667969-4.777344-10.667969-10.667969 0-5.886719 4.777344-10.664062 10.667969-10.664062h42.664062c5.890625 0 10.667969 4.777343 10.667969 10.664062 0 5.890625-4.777344 10.667969-10.667969 10.667969zm0 0"/><path d="m271.828125 101.503906c-2.730469 0-5.460937-1.046875-7.550781-3.113281-4.160156-4.160156-4.160156-10.925781 0-15.082031l30.1875-30.1875c4.160156-4.160156 10.921875-4.160156 15.082031 0s4.160156 10.921875 0 15.082031l-30.1875 30.1875c-2.070313 2.066406-4.800781 3.113281-7.53125 3.113281zm0 0"/><path d="m90.835938 101.503906c-2.730469 0-5.460938-1.046875-7.550782-3.113281l-30.1875-30.210937c-4.160156-4.160157-4.160156-10.921876 0-15.082032s10.921875-4.160156 15.082032 0l30.1875 30.1875c4.160156 4.160156 4.160156 10.921875 0 15.082032-2.070313 2.089843-4.800782 3.136718-7.53125 3.136718zm0 0"/><path d="m153.195312 469.332031h-35.863281c-52.925781 0-96-43.070312-96-96v-85.332031c0-17.644531 14.359375-32 32-32 4.160157 0 8.152344.789062 11.796875 2.238281 3.714844-13.566406 16.152344-23.570312 30.871094-23.570312 4.160156 0 8.148438.789062 11.796875 2.238281 3.710937-13.566406 16.148437-23.574219 30.871094-23.574219 3.730469 0 7.335937.640625 10.664062 1.835938v-33.835938c0-17.640625 14.359375-32 32-32 17.644531 0 32 14.359375 32 32v129.386719l17.773438-11.839844c21.308593-14.25 50.089843-9.34375 65.449219 11.199219 9.257812 12.289063 8.425781 29.484375-2.003907 40.8125l-86.359375 94.207031c-14.058594 15.402344-34.132812 24.234375-54.996094 24.234375zm-99.863281-192c-5.867187 0-10.664062 4.800781-10.664062 10.667969v85.332031c0 41.175781 33.492187 74.667969 74.664062 74.667969h35.863281c14.910157 0 29.226563-6.292969 39.316407-17.300781l86.359375-94.207031c3.453125-3.777344 3.730468-9.496094.660156-13.589844-8.597656-11.476563-24.640625-14.230469-36.585938-6.273438l-34.347656 22.890625c-3.285156 2.199219-7.507812 2.390625-10.964844.511719-3.457031-1.855469-5.632812-5.460938-5.632812-9.386719v-149.332031c0-5.847656-4.800781-10.644531-10.667969-10.644531-5.867187 0-10.664062 4.796875-10.664062 10.664062v117.335938c0 5.886719-4.78125 10.664062-10.667969 10.664062s-10.667969-4.777343-10.667969-10.664062v-53.335938c0-5.867187-4.796875-10.664062-10.664062-10.664062-5.867188 0-10.667969 4.796875-10.667969 10.664062v53.335938c0 5.886719-4.777344 10.664062-10.667969 10.664062-5.886719 0-10.664062-4.777343-10.664062-10.664062v-32c0-5.867188-4.800781-10.667969-10.667969-10.667969s-10.667969 4.800781-10.667969 10.667969v32c0 5.886719-4.777343 10.664062-10.664062 10.664062-5.890625 0-10.667969-4.777343-10.667969-10.664062v-10.667969c0-5.867188-4.800781-10.667969-10.667969-10.667969zm0 0"/><path d="m202.667969 512c-5.890625 0-10.667969-4.777344-10.667969-10.667969v-32h-128v32c0 5.890625-4.777344 10.667969-10.667969 10.667969-5.886719 0-10.664062-4.777344-10.664062-10.667969v-42.664062c0-5.890625 4.777343-10.667969 10.664062-10.667969h149.335938c5.886719 0 10.664062 4.777344 10.664062 10.667969v42.664062c0 5.890625-4.777343 10.667969-10.664062 10.667969zm0 0"/><path d="m245.332031 192c-5.886719 0-10.664062-4.777344-10.664062-10.667969 0-29.417969-23.914063-53.332031-53.335938-53.332031-29.417969 0-53.332031 23.914062-53.332031 53.332031 0 5.890625-4.777344 10.667969-10.667969 10.667969-5.886719 0-10.664062-4.777344-10.664062-10.667969 0-41.171875 33.492187-74.664062 74.664062-74.664062 41.175781 0 74.667969 33.492187 74.667969 74.664062 0 5.890625-4.777344 10.667969-10.667969 10.667969zm0 0"/></svg>